<mxfile host="65bd71144e">
    <diagram id="RuCoD4vbVc9ZEdvUi9oN" name="Page-1">
        <mxGraphModel dx="896" dy="604" grid="1" gridSize="10" guides="1" tooltips="1" connect="1" arrows="1" fold="1" page="1" pageScale="1" pageWidth="850" pageHeight="1100" math="0" shadow="0">
            <root>
                <mxCell id="0"/>
                <mxCell id="1" parent="0"/>
                <mxCell id="2" value="Match" style="swimlane;fontStyle=0;childLayout=stackLayout;horizontal=1;startSize=30;horizontalStack=0;resizeParent=1;resizeParentMax=0;resizeLast=0;collapsible=1;marginBottom=0;whiteSpace=wrap;html=1;fontFamily=FiraCode Nerd Font Propo;" parent="1" vertex="1">
                    <mxGeometry x="355" y="385" width="140" height="90" as="geometry"/>
                </mxCell>
                <mxCell id="3" value="&lt;u&gt;Numéro de match&lt;/u&gt;" style="text;strokeColor=none;fillColor=none;align=left;verticalAlign=middle;spacingLeft=4;spacingRight=4;overflow=hidden;points=[[0,0.5],[1,0.5]];portConstraint=eastwest;rotatable=0;whiteSpace=wrap;html=1;fontFamily=FiraCode Nerd Font Propo;" parent="2" vertex="1">
                    <mxGeometry y="30" width="140" height="30" as="geometry"/>
                </mxCell>
                <mxCell id="4" value="Horaire" style="text;strokeColor=none;fillColor=none;align=left;verticalAlign=middle;spacingLeft=4;spacingRight=4;overflow=hidden;points=[[0,0.5],[1,0.5]];portConstraint=eastwest;rotatable=0;whiteSpace=wrap;html=1;fontFamily=FiraCode Nerd Font Propo;" parent="2" vertex="1">
                    <mxGeometry y="60" width="140" height="30" as="geometry"/>
                </mxCell>
                <mxCell id="22" style="edgeStyle=none;shape=link;html=1;exitX=0.5;exitY=1;exitDx=0;exitDy=0;entryX=0.5;entryY=0;entryDx=0;entryDy=0;fontFamily=FiraCode Nerd Font Propo;" parent="1" source="6" target="14" edge="1">
                    <mxGeometry relative="1" as="geometry"/>
                </mxCell>
                <mxCell id="28" value="0,N" style="edgeLabel;html=1;align=center;verticalAlign=middle;resizable=0;points=[];fontFamily=FiraCode Nerd Font Propo;" parent="22" vertex="1" connectable="0">
                    <mxGeometry x="-0.2555" y="1" relative="1" as="geometry">
                        <mxPoint x="-1" y="19" as="offset"/>
                    </mxGeometry>
                </mxCell>
                <mxCell id="6" value="Terrain" style="swimlane;fontStyle=0;childLayout=stackLayout;horizontal=1;startSize=30;horizontalStack=0;resizeParent=1;resizeParentMax=0;resizeLast=0;collapsible=1;marginBottom=0;whiteSpace=wrap;html=1;fontFamily=FiraCode Nerd Font Propo;" parent="1" vertex="1">
                    <mxGeometry x="690" y="30" width="140" height="90" as="geometry"/>
                </mxCell>
                <mxCell id="7" value="&lt;u&gt;Numéro Terrain&lt;/u&gt;" style="text;strokeColor=none;fillColor=none;align=left;verticalAlign=middle;spacingLeft=4;spacingRight=4;overflow=hidden;points=[[0,0.5],[1,0.5]];portConstraint=eastwest;rotatable=0;whiteSpace=wrap;html=1;fontFamily=FiraCode Nerd Font Propo;" parent="6" vertex="1">
                    <mxGeometry y="30" width="140" height="30" as="geometry"/>
                </mxCell>
                <mxCell id="8" value="Surface" style="text;strokeColor=none;fillColor=none;align=left;verticalAlign=middle;spacingLeft=4;spacingRight=4;overflow=hidden;points=[[0,0.5],[1,0.5]];portConstraint=eastwest;rotatable=0;whiteSpace=wrap;html=1;fontFamily=FiraCode Nerd Font Propo;" parent="6" vertex="1">
                    <mxGeometry y="60" width="140" height="30" as="geometry"/>
                </mxCell>
                <mxCell id="17" style="edgeStyle=none;html=1;exitX=0.5;exitY=1;exitDx=0;exitDy=0;entryX=0.5;entryY=0;entryDx=0;entryDy=0;shape=link;fontFamily=FiraCode Nerd Font Propo;" parent="1" source="10" target="16" edge="1">
                    <mxGeometry relative="1" as="geometry"/>
                </mxCell>
                <mxCell id="25" value="0,N" style="edgeLabel;html=1;align=center;verticalAlign=middle;resizable=0;points=[];fontFamily=FiraCode Nerd Font Propo;" parent="17" vertex="1" connectable="0">
                    <mxGeometry x="-0.3765" relative="1" as="geometry">
                        <mxPoint y="36" as="offset"/>
                    </mxGeometry>
                </mxCell>
                <mxCell id="20" style="edgeStyle=none;shape=link;html=1;exitX=1;exitY=0.5;exitDx=0;exitDy=0;entryX=0.5;entryY=0;entryDx=0;entryDy=0;fontFamily=FiraCode Nerd Font Propo;" parent="1" source="10" target="15" edge="1">
                    <mxGeometry relative="1" as="geometry">
                        <Array as="points">
                            <mxPoint x="425" y="90"/>
                        </Array>
                    </mxGeometry>
                </mxCell>
                <mxCell id="24" value="0,N" style="edgeLabel;html=1;align=center;verticalAlign=middle;resizable=0;points=[];fontFamily=FiraCode Nerd Font Propo;" parent="20" vertex="1" connectable="0">
                    <mxGeometry x="-0.4251" y="-3" relative="1" as="geometry">
                        <mxPoint x="9" y="-3" as="offset"/>
                    </mxGeometry>
                </mxCell>
                <mxCell id="10" value="Joueur" style="swimlane;fontStyle=0;childLayout=stackLayout;horizontal=1;startSize=30;horizontalStack=0;resizeParent=1;resizeParentMax=0;resizeLast=0;collapsible=1;marginBottom=0;whiteSpace=wrap;html=1;fontFamily=FiraCode Nerd Font Propo;" parent="1" vertex="1">
                    <mxGeometry x="20" y="45" width="140" height="90" as="geometry"/>
                </mxCell>
                <mxCell id="11" value="&lt;u&gt;Numéro carte&lt;/u&gt;" style="text;strokeColor=none;fillColor=none;align=left;verticalAlign=middle;spacingLeft=4;spacingRight=4;overflow=hidden;points=[[0,0.5],[1,0.5]];portConstraint=eastwest;rotatable=0;whiteSpace=wrap;html=1;fontFamily=FiraCode Nerd Font Propo;" parent="10" vertex="1">
                    <mxGeometry y="30" width="140" height="30" as="geometry"/>
                </mxCell>
                <mxCell id="12" value="Nom" style="text;strokeColor=none;fillColor=none;align=left;verticalAlign=middle;spacingLeft=4;spacingRight=4;overflow=hidden;points=[[0,0.5],[1,0.5]];portConstraint=eastwest;rotatable=0;whiteSpace=wrap;html=1;fontFamily=FiraCode Nerd Font Propo;" parent="10" vertex="1">
                    <mxGeometry y="60" width="140" height="30" as="geometry"/>
                </mxCell>
                <mxCell id="23" style="edgeStyle=none;shape=link;html=1;exitX=0;exitY=0.5;exitDx=0;exitDy=0;fontFamily=FiraCode Nerd Font Propo;" parent="1" source="14" target="2" edge="1">
                    <mxGeometry relative="1" as="geometry"/>
                </mxCell>
                <mxCell id="29" value="1,1" style="edgeLabel;html=1;align=center;verticalAlign=middle;resizable=0;points=[];fontFamily=FiraCode Nerd Font Propo;" parent="23" vertex="1" connectable="0">
                    <mxGeometry x="0.1642" y="-2" relative="1" as="geometry">
                        <mxPoint x="19" y="2" as="offset"/>
                    </mxGeometry>
                </mxCell>
                <mxCell id="14" value="Se joue sur" style="ellipse;whiteSpace=wrap;html=1;fontFamily=FiraCode Nerd Font Propo;" parent="1" vertex="1">
                    <mxGeometry x="700" y="390" width="120" height="80" as="geometry"/>
                </mxCell>
                <mxCell id="21" style="edgeStyle=none;shape=link;html=1;exitX=0.5;exitY=1;exitDx=0;exitDy=0;entryX=0.5;entryY=0;entryDx=0;entryDy=0;fontFamily=FiraCode Nerd Font Propo;" parent="1" source="15" target="2" edge="1">
                    <mxGeometry relative="1" as="geometry"/>
                </mxCell>
                <mxCell id="27" value="1,1" style="edgeLabel;html=1;align=center;verticalAlign=middle;resizable=0;points=[];fontFamily=FiraCode Nerd Font Propo;" parent="21" vertex="1" connectable="0">
                    <mxGeometry x="-0.3789" y="-4" relative="1" as="geometry">
                        <mxPoint x="4" y="10" as="offset"/>
                    </mxGeometry>
                </mxCell>
                <mxCell id="15" value="&lt;font style=&quot;&quot;&gt;&lt;span style=&quot;font-size: 14px;&quot;&gt;Gagne&lt;/span&gt;&lt;br&gt;&lt;br&gt;&lt;font style=&quot;font-size: 12px;&quot;&gt;Score&lt;/font&gt;&lt;br&gt;&lt;/font&gt;" style="ellipse;whiteSpace=wrap;html=1;fontFamily=FiraCode Nerd Font Propo;" parent="1" vertex="1">
                    <mxGeometry x="365" y="210" width="120" height="80" as="geometry"/>
                </mxCell>
                <mxCell id="18" style="edgeStyle=none;shape=link;html=1;exitX=1;exitY=0.5;exitDx=0;exitDy=0;fontFamily=FiraCode Nerd Font Propo;" parent="1" source="16" target="2" edge="1">
                    <mxGeometry relative="1" as="geometry"/>
                </mxCell>
                <mxCell id="26" value="1,N" style="edgeLabel;html=1;align=center;verticalAlign=middle;resizable=0;points=[];fontFamily=FiraCode Nerd Font Propo;" parent="18" vertex="1" connectable="0">
                    <mxGeometry x="-0.3593" y="-3" relative="1" as="geometry">
                        <mxPoint x="24" y="-3" as="offset"/>
                    </mxGeometry>
                </mxCell>
                <mxCell id="16" value="Participe" style="ellipse;whiteSpace=wrap;html=1;fontFamily=FiraCode Nerd Font Propo;" parent="1" vertex="1">
                    <mxGeometry x="30" y="390" width="120" height="80" as="geometry"/>
                </mxCell>
            </root>
        </mxGraphModel>
    </diagram>
</mxfile>